<mxfile host="Electron" agent="Mozilla/5.0 (Macintosh; Intel Mac OS X 10_15_7) AppleWebKit/537.36 (KHTML, like Gecko) draw.io/26.0.16 Chrome/132.0.6834.196 Electron/34.2.0 Safari/537.36" version="26.0.16">
  <diagram name="第 1 页" id="l0feaPnnaPYxQAXBe22V">
    <mxGraphModel dx="1511" dy="769" grid="1" gridSize="10" guides="1" tooltips="1" connect="1" arrows="1" fold="1" page="1" pageScale="1" pageWidth="827" pageHeight="1169" math="0" shadow="0">
      <root>
        <mxCell id="0" />
        <mxCell id="1" parent="0" />
        <mxCell id="PtNK9OmEc5fURKjZiY0K-6" style="rounded=0;orthogonalLoop=1;jettySize=auto;html=1;exitX=1;exitY=0.5;exitDx=0;exitDy=0;entryX=0;entryY=0.5;entryDx=0;entryDy=0;strokeColor=none;" edge="1" parent="1" source="PtNK9OmEc5fURKjZiY0K-1" target="PtNK9OmEc5fURKjZiY0K-2">
          <mxGeometry relative="1" as="geometry" />
        </mxCell>
        <mxCell id="PtNK9OmEc5fURKjZiY0K-1" value="1" style="ellipse;whiteSpace=wrap;html=1;aspect=fixed;" vertex="1" parent="1">
          <mxGeometry x="160" y="210" width="40" height="40" as="geometry" />
        </mxCell>
        <mxCell id="PtNK9OmEc5fURKjZiY0K-2" value="4" style="ellipse;whiteSpace=wrap;html=1;aspect=fixed;" vertex="1" parent="1">
          <mxGeometry x="380" y="210" width="40" height="40" as="geometry" />
        </mxCell>
        <mxCell id="PtNK9OmEc5fURKjZiY0K-3" value="2" style="ellipse;whiteSpace=wrap;html=1;aspect=fixed;" vertex="1" parent="1">
          <mxGeometry x="40" y="360" width="40" height="40" as="geometry" />
        </mxCell>
        <mxCell id="PtNK9OmEc5fURKjZiY0K-4" value="3" style="ellipse;whiteSpace=wrap;html=1;aspect=fixed;" vertex="1" parent="1">
          <mxGeometry x="280" y="360" width="40" height="40" as="geometry" />
        </mxCell>
        <mxCell id="PtNK9OmEc5fURKjZiY0K-5" value="5" style="ellipse;whiteSpace=wrap;html=1;aspect=fixed;" vertex="1" parent="1">
          <mxGeometry x="394" y="410" width="40" height="40" as="geometry" />
        </mxCell>
        <mxCell id="PtNK9OmEc5fURKjZiY0K-8" value="" style="endArrow=none;html=1;rounded=0;exitX=1;exitY=0.5;exitDx=0;exitDy=0;entryX=0;entryY=0.5;entryDx=0;entryDy=0;" edge="1" parent="1" source="PtNK9OmEc5fURKjZiY0K-1" target="PtNK9OmEc5fURKjZiY0K-2">
          <mxGeometry width="50" height="50" relative="1" as="geometry">
            <mxPoint x="240" y="280" as="sourcePoint" />
            <mxPoint x="290" y="230" as="targetPoint" />
          </mxGeometry>
        </mxCell>
        <mxCell id="PtNK9OmEc5fURKjZiY0K-21" value="9" style="edgeLabel;html=1;align=center;verticalAlign=middle;resizable=0;points=[];" vertex="1" connectable="0" parent="PtNK9OmEc5fURKjZiY0K-8">
          <mxGeometry x="-0.3667" y="-3" relative="1" as="geometry">
            <mxPoint as="offset" />
          </mxGeometry>
        </mxCell>
        <mxCell id="PtNK9OmEc5fURKjZiY0K-9" value="" style="endArrow=none;html=1;rounded=0;exitX=1;exitY=0.5;exitDx=0;exitDy=0;entryX=0;entryY=0.5;entryDx=0;entryDy=0;" edge="1" parent="1" source="PtNK9OmEc5fURKjZiY0K-3" target="PtNK9OmEc5fURKjZiY0K-4">
          <mxGeometry width="50" height="50" relative="1" as="geometry">
            <mxPoint x="210" y="240" as="sourcePoint" />
            <mxPoint x="390" y="240" as="targetPoint" />
          </mxGeometry>
        </mxCell>
        <mxCell id="PtNK9OmEc5fURKjZiY0K-26" value="5" style="edgeLabel;html=1;align=center;verticalAlign=middle;resizable=0;points=[];" vertex="1" connectable="0" parent="PtNK9OmEc5fURKjZiY0K-9">
          <mxGeometry x="-0.14" y="4" relative="1" as="geometry">
            <mxPoint as="offset" />
          </mxGeometry>
        </mxCell>
        <mxCell id="PtNK9OmEc5fURKjZiY0K-10" value="" style="endArrow=none;html=1;rounded=0;exitX=0;exitY=1;exitDx=0;exitDy=0;entryX=1;entryY=0;entryDx=0;entryDy=0;" edge="1" parent="1" source="PtNK9OmEc5fURKjZiY0K-1" target="PtNK9OmEc5fURKjZiY0K-3">
          <mxGeometry width="50" height="50" relative="1" as="geometry">
            <mxPoint x="90" y="390" as="sourcePoint" />
            <mxPoint x="290" y="390" as="targetPoint" />
          </mxGeometry>
        </mxCell>
        <mxCell id="PtNK9OmEc5fURKjZiY0K-20" value="7" style="edgeLabel;html=1;align=center;verticalAlign=middle;resizable=0;points=[];" vertex="1" connectable="0" parent="PtNK9OmEc5fURKjZiY0K-10">
          <mxGeometry x="-0.1836" y="-3" relative="1" as="geometry">
            <mxPoint as="offset" />
          </mxGeometry>
        </mxCell>
        <mxCell id="PtNK9OmEc5fURKjZiY0K-11" value="" style="endArrow=none;html=1;rounded=0;exitX=0.5;exitY=1;exitDx=0;exitDy=0;entryX=1;entryY=0;entryDx=0;entryDy=0;" edge="1" parent="1" source="PtNK9OmEc5fURKjZiY0K-2" target="PtNK9OmEc5fURKjZiY0K-4">
          <mxGeometry width="50" height="50" relative="1" as="geometry">
            <mxPoint x="100" y="400" as="sourcePoint" />
            <mxPoint x="300" y="400" as="targetPoint" />
          </mxGeometry>
        </mxCell>
        <mxCell id="PtNK9OmEc5fURKjZiY0K-24" value="6" style="edgeLabel;html=1;align=center;verticalAlign=middle;resizable=0;points=[];" vertex="1" connectable="0" parent="PtNK9OmEc5fURKjZiY0K-11">
          <mxGeometry x="-0.0098" y="-1" relative="1" as="geometry">
            <mxPoint y="1" as="offset" />
          </mxGeometry>
        </mxCell>
        <mxCell id="PtNK9OmEc5fURKjZiY0K-12" value="" style="endArrow=none;html=1;rounded=0;exitX=0.5;exitY=0;exitDx=0;exitDy=0;entryX=0.5;entryY=0;entryDx=0;entryDy=0;edgeStyle=orthogonalEdgeStyle;curved=1;" edge="1" parent="1" source="PtNK9OmEc5fURKjZiY0K-3" target="PtNK9OmEc5fURKjZiY0K-2">
          <mxGeometry width="50" height="50" relative="1" as="geometry">
            <mxPoint x="90" y="390" as="sourcePoint" />
            <mxPoint x="290" y="390" as="targetPoint" />
          </mxGeometry>
        </mxCell>
        <mxCell id="PtNK9OmEc5fURKjZiY0K-16" value="4" style="edgeLabel;html=1;align=center;verticalAlign=middle;resizable=0;points=[];" vertex="1" connectable="0" parent="PtNK9OmEc5fURKjZiY0K-12">
          <mxGeometry x="-0.1333" y="-27" relative="1" as="geometry">
            <mxPoint as="offset" />
          </mxGeometry>
        </mxCell>
        <mxCell id="PtNK9OmEc5fURKjZiY0K-14" value="" style="endArrow=none;html=1;rounded=0;exitX=0.5;exitY=1;exitDx=0;exitDy=0;entryX=0;entryY=0.5;entryDx=0;entryDy=0;edgeStyle=orthogonalEdgeStyle;curved=1;" edge="1" parent="1" source="PtNK9OmEc5fURKjZiY0K-3" target="PtNK9OmEc5fURKjZiY0K-5">
          <mxGeometry width="50" height="50" relative="1" as="geometry">
            <mxPoint x="70" y="370" as="sourcePoint" />
            <mxPoint x="410" y="220" as="targetPoint" />
          </mxGeometry>
        </mxCell>
        <mxCell id="PtNK9OmEc5fURKjZiY0K-25" value="4" style="edgeLabel;html=1;align=center;verticalAlign=middle;resizable=0;points=[];" vertex="1" connectable="0" parent="PtNK9OmEc5fURKjZiY0K-14">
          <mxGeometry x="0.0714" y="4" relative="1" as="geometry">
            <mxPoint as="offset" />
          </mxGeometry>
        </mxCell>
        <mxCell id="PtNK9OmEc5fURKjZiY0K-18" value="" style="endArrow=none;html=1;rounded=0;entryX=1;entryY=0.5;entryDx=0;entryDy=0;exitX=0.5;exitY=0;exitDx=0;exitDy=0;" edge="1" parent="1" source="PtNK9OmEc5fURKjZiY0K-5" target="PtNK9OmEc5fURKjZiY0K-2">
          <mxGeometry width="50" height="50" relative="1" as="geometry">
            <mxPoint x="500" y="380" as="sourcePoint" />
            <mxPoint x="550" y="330" as="targetPoint" />
          </mxGeometry>
        </mxCell>
        <mxCell id="PtNK9OmEc5fURKjZiY0K-19" value="2" style="edgeLabel;html=1;align=center;verticalAlign=middle;resizable=0;points=[];" vertex="1" connectable="0" parent="PtNK9OmEc5fURKjZiY0K-18">
          <mxGeometry x="-0.1454" y="3" relative="1" as="geometry">
            <mxPoint as="offset" />
          </mxGeometry>
        </mxCell>
        <mxCell id="PtNK9OmEc5fURKjZiY0K-22" value="" style="endArrow=none;html=1;rounded=0;exitX=1;exitY=1;exitDx=0;exitDy=0;entryX=0;entryY=0;entryDx=0;entryDy=0;" edge="1" parent="1" source="PtNK9OmEc5fURKjZiY0K-1" target="PtNK9OmEc5fURKjZiY0K-4">
          <mxGeometry width="50" height="50" relative="1" as="geometry">
            <mxPoint x="90" y="390" as="sourcePoint" />
            <mxPoint x="290" y="390" as="targetPoint" />
          </mxGeometry>
        </mxCell>
        <mxCell id="PtNK9OmEc5fURKjZiY0K-23" value="8" style="edgeLabel;html=1;align=center;verticalAlign=middle;resizable=0;points=[];" vertex="1" connectable="0" parent="PtNK9OmEc5fURKjZiY0K-22">
          <mxGeometry x="-0.2415" y="-1" relative="1" as="geometry">
            <mxPoint as="offset" />
          </mxGeometry>
        </mxCell>
        <mxCell id="PtNK9OmEc5fURKjZiY0K-49" style="rounded=0;orthogonalLoop=1;jettySize=auto;html=1;exitX=1;exitY=0.5;exitDx=0;exitDy=0;entryX=0;entryY=0.5;entryDx=0;entryDy=0;strokeColor=none;" edge="1" parent="1" source="PtNK9OmEc5fURKjZiY0K-50" target="PtNK9OmEc5fURKjZiY0K-51">
          <mxGeometry relative="1" as="geometry" />
        </mxCell>
        <mxCell id="PtNK9OmEc5fURKjZiY0K-50" value="1" style="ellipse;whiteSpace=wrap;html=1;aspect=fixed;fillColor=#dae8fc;strokeColor=#6c8ebf;" vertex="1" parent="1">
          <mxGeometry x="170" y="530" width="40" height="40" as="geometry" />
        </mxCell>
        <mxCell id="PtNK9OmEc5fURKjZiY0K-51" value="4" style="ellipse;whiteSpace=wrap;html=1;aspect=fixed;fillColor=#dae8fc;strokeColor=#6c8ebf;" vertex="1" parent="1">
          <mxGeometry x="390" y="530" width="40" height="40" as="geometry" />
        </mxCell>
        <mxCell id="PtNK9OmEc5fURKjZiY0K-52" value="2" style="ellipse;whiteSpace=wrap;html=1;aspect=fixed;fillColor=#dae8fc;strokeColor=#6c8ebf;" vertex="1" parent="1">
          <mxGeometry x="50" y="680" width="40" height="40" as="geometry" />
        </mxCell>
        <mxCell id="PtNK9OmEc5fURKjZiY0K-53" value="3" style="ellipse;whiteSpace=wrap;html=1;aspect=fixed;fillColor=#dae8fc;strokeColor=#6c8ebf;" vertex="1" parent="1">
          <mxGeometry x="290" y="680" width="40" height="40" as="geometry" />
        </mxCell>
        <mxCell id="PtNK9OmEc5fURKjZiY0K-54" value="5" style="ellipse;whiteSpace=wrap;html=1;aspect=fixed;fillColor=#dae8fc;strokeColor=#6c8ebf;" vertex="1" parent="1">
          <mxGeometry x="404" y="730" width="40" height="40" as="geometry" />
        </mxCell>
        <mxCell id="PtNK9OmEc5fURKjZiY0K-57" value="" style="endArrow=none;html=1;rounded=0;exitX=1;exitY=0.5;exitDx=0;exitDy=0;entryX=0;entryY=0.5;entryDx=0;entryDy=0;fillColor=#ffe6cc;strokeColor=#d79b00;" edge="1" parent="1" source="PtNK9OmEc5fURKjZiY0K-52" target="PtNK9OmEc5fURKjZiY0K-53">
          <mxGeometry width="50" height="50" relative="1" as="geometry">
            <mxPoint x="220" y="560" as="sourcePoint" />
            <mxPoint x="400" y="560" as="targetPoint" />
          </mxGeometry>
        </mxCell>
        <mxCell id="PtNK9OmEc5fURKjZiY0K-58" value="5" style="edgeLabel;html=1;align=center;verticalAlign=middle;resizable=0;points=[];" vertex="1" connectable="0" parent="PtNK9OmEc5fURKjZiY0K-57">
          <mxGeometry x="-0.14" y="4" relative="1" as="geometry">
            <mxPoint as="offset" />
          </mxGeometry>
        </mxCell>
        <mxCell id="PtNK9OmEc5fURKjZiY0K-59" value="" style="endArrow=none;html=1;rounded=0;exitX=0;exitY=1;exitDx=0;exitDy=0;entryX=1;entryY=0;entryDx=0;entryDy=0;fillColor=#ffe6cc;strokeColor=#d79b00;" edge="1" parent="1" source="PtNK9OmEc5fURKjZiY0K-50" target="PtNK9OmEc5fURKjZiY0K-52">
          <mxGeometry width="50" height="50" relative="1" as="geometry">
            <mxPoint x="100" y="710" as="sourcePoint" />
            <mxPoint x="300" y="710" as="targetPoint" />
          </mxGeometry>
        </mxCell>
        <mxCell id="PtNK9OmEc5fURKjZiY0K-60" value="7" style="edgeLabel;html=1;align=center;verticalAlign=middle;resizable=0;points=[];" vertex="1" connectable="0" parent="PtNK9OmEc5fURKjZiY0K-59">
          <mxGeometry x="-0.1836" y="-3" relative="1" as="geometry">
            <mxPoint as="offset" />
          </mxGeometry>
        </mxCell>
        <mxCell id="PtNK9OmEc5fURKjZiY0K-63" value="" style="endArrow=none;html=1;rounded=0;exitX=0.5;exitY=0;exitDx=0;exitDy=0;entryX=0.5;entryY=0;entryDx=0;entryDy=0;edgeStyle=orthogonalEdgeStyle;curved=1;fillColor=#ffe6cc;strokeColor=#d79b00;" edge="1" parent="1" source="PtNK9OmEc5fURKjZiY0K-52" target="PtNK9OmEc5fURKjZiY0K-51">
          <mxGeometry width="50" height="50" relative="1" as="geometry">
            <mxPoint x="100" y="710" as="sourcePoint" />
            <mxPoint x="300" y="710" as="targetPoint" />
          </mxGeometry>
        </mxCell>
        <mxCell id="PtNK9OmEc5fURKjZiY0K-64" value="4" style="edgeLabel;html=1;align=center;verticalAlign=middle;resizable=0;points=[];" vertex="1" connectable="0" parent="PtNK9OmEc5fURKjZiY0K-63">
          <mxGeometry x="-0.1333" y="-27" relative="1" as="geometry">
            <mxPoint as="offset" />
          </mxGeometry>
        </mxCell>
        <mxCell id="PtNK9OmEc5fURKjZiY0K-67" value="" style="endArrow=none;html=1;rounded=0;entryX=1;entryY=0.5;entryDx=0;entryDy=0;exitX=0.5;exitY=0;exitDx=0;exitDy=0;fillColor=#ffe6cc;strokeColor=#d79b00;" edge="1" parent="1" source="PtNK9OmEc5fURKjZiY0K-54" target="PtNK9OmEc5fURKjZiY0K-51">
          <mxGeometry width="50" height="50" relative="1" as="geometry">
            <mxPoint x="510" y="700" as="sourcePoint" />
            <mxPoint x="560" y="650" as="targetPoint" />
          </mxGeometry>
        </mxCell>
        <mxCell id="PtNK9OmEc5fURKjZiY0K-68" value="2" style="edgeLabel;html=1;align=center;verticalAlign=middle;resizable=0;points=[];" vertex="1" connectable="0" parent="PtNK9OmEc5fURKjZiY0K-67">
          <mxGeometry x="-0.1454" y="3" relative="1" as="geometry">
            <mxPoint as="offset" />
          </mxGeometry>
        </mxCell>
        <mxCell id="PtNK9OmEc5fURKjZiY0K-71" value="初始连通图" style="text;html=1;align=center;verticalAlign=middle;whiteSpace=wrap;rounded=0;" vertex="1" parent="1">
          <mxGeometry x="-120" y="290" width="110" height="30" as="geometry" />
        </mxCell>
        <mxCell id="PtNK9OmEc5fURKjZiY0K-72" value="最小生成树" style="text;html=1;align=center;verticalAlign=middle;whiteSpace=wrap;rounded=0;" vertex="1" parent="1">
          <mxGeometry x="-120" y="620" width="110" height="30" as="geometry" />
        </mxCell>
        <mxCell id="PtNK9OmEc5fURKjZiY0K-73" style="rounded=0;orthogonalLoop=1;jettySize=auto;html=1;exitX=1;exitY=0.5;exitDx=0;exitDy=0;entryX=0;entryY=0.5;entryDx=0;entryDy=0;strokeColor=none;" edge="1" parent="1" source="PtNK9OmEc5fURKjZiY0K-74" target="PtNK9OmEc5fURKjZiY0K-75">
          <mxGeometry relative="1" as="geometry" />
        </mxCell>
        <mxCell id="PtNK9OmEc5fURKjZiY0K-74" value="1" style="ellipse;whiteSpace=wrap;html=1;aspect=fixed;fillColor=#dae8fc;strokeColor=#6c8ebf;" vertex="1" parent="1">
          <mxGeometry x="750" y="530" width="40" height="40" as="geometry" />
        </mxCell>
        <mxCell id="PtNK9OmEc5fURKjZiY0K-75" value="4" style="ellipse;whiteSpace=wrap;html=1;aspect=fixed;fillColor=#dae8fc;strokeColor=#6c8ebf;" vertex="1" parent="1">
          <mxGeometry x="970" y="530" width="40" height="40" as="geometry" />
        </mxCell>
        <mxCell id="PtNK9OmEc5fURKjZiY0K-76" value="2" style="ellipse;whiteSpace=wrap;html=1;aspect=fixed;fillColor=#dae8fc;strokeColor=#6c8ebf;" vertex="1" parent="1">
          <mxGeometry x="630" y="680" width="40" height="40" as="geometry" />
        </mxCell>
        <mxCell id="PtNK9OmEc5fURKjZiY0K-77" value="3" style="ellipse;whiteSpace=wrap;html=1;aspect=fixed;fillColor=#dae8fc;strokeColor=#6c8ebf;" vertex="1" parent="1">
          <mxGeometry x="870" y="680" width="40" height="40" as="geometry" />
        </mxCell>
        <mxCell id="PtNK9OmEc5fURKjZiY0K-78" value="5" style="ellipse;whiteSpace=wrap;html=1;aspect=fixed;fillColor=#dae8fc;strokeColor=#6c8ebf;" vertex="1" parent="1">
          <mxGeometry x="984" y="730" width="40" height="40" as="geometry" />
        </mxCell>
        <mxCell id="PtNK9OmEc5fURKjZiY0K-81" value="" style="endArrow=none;html=1;rounded=0;exitX=1;exitY=0.5;exitDx=0;exitDy=0;entryX=0;entryY=0.5;entryDx=0;entryDy=0;fillColor=#ffe6cc;strokeColor=#d79b00;" edge="1" parent="1" source="PtNK9OmEc5fURKjZiY0K-76" target="PtNK9OmEc5fURKjZiY0K-77">
          <mxGeometry width="50" height="50" relative="1" as="geometry">
            <mxPoint x="800" y="560" as="sourcePoint" />
            <mxPoint x="980" y="560" as="targetPoint" />
          </mxGeometry>
        </mxCell>
        <mxCell id="PtNK9OmEc5fURKjZiY0K-82" value="5" style="edgeLabel;html=1;align=center;verticalAlign=middle;resizable=0;points=[];" vertex="1" connectable="0" parent="PtNK9OmEc5fURKjZiY0K-81">
          <mxGeometry x="-0.14" y="4" relative="1" as="geometry">
            <mxPoint as="offset" />
          </mxGeometry>
        </mxCell>
        <mxCell id="PtNK9OmEc5fURKjZiY0K-83" value="" style="endArrow=none;html=1;rounded=0;exitX=0;exitY=1;exitDx=0;exitDy=0;entryX=1;entryY=0;entryDx=0;entryDy=0;fillColor=#ffe6cc;strokeColor=#d79b00;" edge="1" parent="1" source="PtNK9OmEc5fURKjZiY0K-74" target="PtNK9OmEc5fURKjZiY0K-76">
          <mxGeometry width="50" height="50" relative="1" as="geometry">
            <mxPoint x="680" y="710" as="sourcePoint" />
            <mxPoint x="880" y="710" as="targetPoint" />
          </mxGeometry>
        </mxCell>
        <mxCell id="PtNK9OmEc5fURKjZiY0K-84" value="7" style="edgeLabel;html=1;align=center;verticalAlign=middle;resizable=0;points=[];" vertex="1" connectable="0" parent="PtNK9OmEc5fURKjZiY0K-83">
          <mxGeometry x="-0.1836" y="-3" relative="1" as="geometry">
            <mxPoint as="offset" />
          </mxGeometry>
        </mxCell>
        <mxCell id="PtNK9OmEc5fURKjZiY0K-89" value="" style="endArrow=none;html=1;rounded=0;exitX=0.5;exitY=1;exitDx=0;exitDy=0;entryX=0;entryY=0.5;entryDx=0;entryDy=0;edgeStyle=orthogonalEdgeStyle;curved=1;fillColor=#ffe6cc;strokeColor=#d79b00;" edge="1" parent="1" source="PtNK9OmEc5fURKjZiY0K-76" target="PtNK9OmEc5fURKjZiY0K-78">
          <mxGeometry width="50" height="50" relative="1" as="geometry">
            <mxPoint x="660" y="690" as="sourcePoint" />
            <mxPoint x="1000" y="540" as="targetPoint" />
          </mxGeometry>
        </mxCell>
        <mxCell id="PtNK9OmEc5fURKjZiY0K-90" value="4" style="edgeLabel;html=1;align=center;verticalAlign=middle;resizable=0;points=[];" vertex="1" connectable="0" parent="PtNK9OmEc5fURKjZiY0K-89">
          <mxGeometry x="0.0714" y="4" relative="1" as="geometry">
            <mxPoint as="offset" />
          </mxGeometry>
        </mxCell>
        <mxCell id="PtNK9OmEc5fURKjZiY0K-91" value="" style="endArrow=none;html=1;rounded=0;entryX=1;entryY=0.5;entryDx=0;entryDy=0;exitX=0.5;exitY=0;exitDx=0;exitDy=0;fillColor=#ffe6cc;strokeColor=#d79b00;" edge="1" parent="1" source="PtNK9OmEc5fURKjZiY0K-78" target="PtNK9OmEc5fURKjZiY0K-75">
          <mxGeometry width="50" height="50" relative="1" as="geometry">
            <mxPoint x="1090" y="700" as="sourcePoint" />
            <mxPoint x="1140" y="650" as="targetPoint" />
          </mxGeometry>
        </mxCell>
        <mxCell id="PtNK9OmEc5fURKjZiY0K-92" value="2" style="edgeLabel;html=1;align=center;verticalAlign=middle;resizable=0;points=[];" vertex="1" connectable="0" parent="PtNK9OmEc5fURKjZiY0K-91">
          <mxGeometry x="-0.1454" y="3" relative="1" as="geometry">
            <mxPoint as="offset" />
          </mxGeometry>
        </mxCell>
      </root>
    </mxGraphModel>
  </diagram>
</mxfile>
